<svg width="56" height="56" viewBox="0 0 56 56" fill="none" xmlns="http://www.w3.org/2000/svg">
<path fill-rule="evenodd" clip-rule="evenodd" d="M16 32H4C1.79 32 0 33.79 0 36V52C0 54.21 1.79 56 4 56H16C18.21 56 20 54.21 20 52V36C20 33.79 18.21 32 16 32ZM30 16C28.408 16 26.882 16.632 25.758 17.758C24.632 18.882 24 20.408 24 22C24 28.926 24 43.074 24 50C24 51.592 24.632 53.118 25.758 54.242C26.882 55.368 28.408 56 30 56H40.344C41.934 56 43.46 55.368 44.586 54.242L54.242 44.586C55.368 43.46 56 41.934 56 40.344V22C56 18.686 53.314 16 50 16H30ZM4 36V52H16V36H4ZM52 40V22C52 20.896 51.104 20 50 20H30C29.47 20 28.96 20.21 28.586 20.586C28.21 20.96 28 21.47 28 22V50C28 50.53 28.21 51.04 28.586 51.414C28.96 51.79 29.47 52 30 52H40V46C40 42.686 42.686 40 46 40H52ZM49.172 44H46C44.896 44 44 44.896 44 46V49.172L49.172 44ZM8 42V46C8 47.104 8.896 48 10 48C11.104 48 12 47.104 12 46V42C12 40.896 11.104 40 10 40C8.896 40 8 40.896 8 42ZM34 36H42C43.104 36 44 35.104 44 34C44 32.896 43.104 32 42 32H34C32.896 32 32 32.896 32 34C32 35.104 32.896 36 34 36ZM34 28H46C47.104 28 48 27.104 48 26C48 24.896 47.104 24 46 24H34C32.896 24 32 24.896 32 26C32 27.104 32.896 28 34 28ZM16 0H4C2.94 0 1.922 0.421997 1.172 1.172C0.421997 1.922 0 2.94 0 4C0 8.52 0 19.48 0 24C0 25.06 0.421997 26.078 1.172 26.828C1.922 27.578 2.94 28 4 28H16C17.06 28 18.078 27.578 18.828 26.828C19.578 26.078 20 25.06 20 24C20 19.48 20 8.52 20 4C20 2.94 19.578 1.922 18.828 1.172C18.078 0.421997 17.06 0 16 0ZM14.392 4H4V24H14.392L8.968 18.038C6.886 15.748 6.886 12.252 8.968 9.962L14.392 4ZM16 8.178L11.928 12.654C11.234 13.418 11.234 14.582 11.928 15.346L16 19.822V8.178ZM52 0H32.43C31.862 0 31.302 0.119996 30.784 0.353996L26.356 2.354C24.922 3.002 24.002 4.428 24.002 6C24.002 7.572 24.922 8.998 26.356 9.646L30.784 11.646C31.302 11.88 31.862 12 32.43 12H52C54.21 12 56 10.21 56 8V4C56 1.79 54.21 0 52 0ZM28.002 6L32.43 8H52V4H32.43L28.002 6Z" fill="#DC0155"/>
</svg>
